<?xml version="1.0" standalone="no"?>
<!DOCTYPE svg PUBLIC "-//W3C//DTD SVG 20010904//EN"
 "http://www.w3.org/TR/2001/REC-SVG-20010904/DTD/svg10.dtd">
<svg version="1.0" xmlns="http://www.w3.org/2000/svg"
 width="1344.000000pt" height="768.000000pt" viewBox="0 0 1344.000000 768.000000"
 preserveAspectRatio="xMidYMid meet">

<g transform="translate(0.000000,768.000000) scale(0.100000,-0.100000)"
fill="#000000" stroke="none">
<path d="M0 3840 l0 -3840 6720 0 6720 0 0 3840 0 3840 -6720 0 -6720 0 0
-3840z m6516 2939 c104 -33 429 -139 722 -235 628 -206 603 -190 402 -260
-306 -107 -550 -197 -550 -203 0 -3 14 -48 30 -99 43 -136 47 -175 21 -201
-12 -12 -21 -23 -21 -26 0 -2 25 -41 55 -85 157 -230 216 -450 201 -750 -14
-290 -74 -459 -242 -674 -47 -59 -54 -74 -54 -113 0 -52 16 -86 62 -130 45
-43 106 -63 194 -63 167 0 306 95 365 250 36 95 42 193 27 425 -20 317 -7 407
79 538 124 188 371 259 557 159 51 -28 106 -86 106 -113 0 -31 -36 -52 -77
-45 -123 20 -178 19 -231 -4 -64 -28 -102 -70 -102 -113 0 -34 -33 -97 -50
-97 -16 0 -11 -56 7 -71 39 -33 57 -134 28 -163 -16 -15 -20 -54 -7 -71 4 -5
16 -15 27 -21 28 -15 65 -91 65 -135 0 -22 -8 -47 -21 -63 -26 -34 -20 -79 16
-112 22 -20 25 -32 25 -86 0 -73 -24 -131 -56 -136 -28 -4 -51 -70 -35 -100
18 -34 13 -82 -14 -127 -30 -52 -68 -79 -100 -71 -37 9 -66 -27 -52 -63 14
-39 -14 -86 -78 -129 -41 -28 -55 -32 -85 -27 -29 5 -40 2 -55 -16 l-20 -22
59 8 c190 23 311 102 495 324 176 213 240 261 346 261 31 0 64 -4 74 -9 14 -8
36 9 116 87 55 53 156 151 225 217 69 66 179 172 245 235 112 108 393 373 565
535 41 38 115 108 165 155 49 47 153 144 230 215 76 72 208 197 292 278 157
151 188 171 188 115 0 -29 -8 -37 -665 -703 -179 -181 -522 -530 -762 -775
-240 -245 -439 -448 -443 -452 -4 -4 0 -19 8 -32 41 -62 27 -209 -29 -303 -48
-82 -157 -163 -220 -163 -36 0 -72 37 -76 76 l-3 36 -39 -34 c-35 -31 -38 -36
-27 -56 28 -53 -47 -162 -111 -162 -46 0 -62 -20 -54 -64 6 -31 2 -40 -30 -75
-45 -51 -102 -71 -136 -49 -16 10 -30 13 -46 7 -23 -9 -26 -14 -36 -59 -7 -32
-67 -68 -128 -76 -39 -5 -48 -3 -66 16 -21 23 -23 23 -107 10 -47 -7 -85 -17
-85 -21 0 -14 95 -91 160 -130 212 -126 472 -155 635 -71 49 24 115 94 147
154 21 40 23 55 23 197 l0 154 26 19 c24 18 30 19 54 7 65 -32 121 -143 132
-264 5 -55 0 -112 -23 -262 -3 -18 -20 -51 -39 -73 -23 -28 -35 -52 -35 -72 0
-22 -11 -41 -40 -70 -33 -34 -45 -40 -69 -35 -33 7 -71 -15 -71 -41 -1 -62
-131 -117 -189 -80 -26 16 -71 -4 -71 -31 0 -25 -26 -39 -83 -47 -56 -8 -112
17 -121 52 -5 20 -13 24 -41 24 -28 0 -35 -4 -35 -20 0 -27 -43 -43 -98 -36
-64 9 -102 32 -109 67 -10 49 -65 66 -98 29 -27 -30 -82 -26 -137 9 -48 30
-64 57 -53 90 9 30 -45 48 -78 26 -22 -14 -31 -15 -67 -4 -52 16 -98 58 -106
97 -6 32 -22 41 -99 61 -61 16 -84 13 -112 -15 -26 -26 -26 -27 -20 -133 8
-120 39 -331 63 -424 40 -156 119 -263 232 -315 83 -38 196 -37 275 2 98 48
159 144 173 274 8 73 26 102 62 102 40 0 68 -35 87 -105 39 -153 -8 -314 -129
-440 -81 -82 -207 -144 -296 -145 -14 0 -30 -8 -37 -19 -27 -44 -151 -32 -193
18 -27 33 -89 46 -112 23 -16 -16 -73 -15 -106 2 -47 25 -85 72 -79 98 5 17
-2 31 -25 55 -26 27 -34 30 -55 22 -75 -28 -184 115 -144 189 12 23 -13 82
-34 82 -31 0 -73 30 -89 64 -20 42 -21 139 -2 155 23 19 7 60 -30 76 -47 19
-74 68 -74 132 0 34 5 57 16 67 19 20 13 41 -38 128 -47 81 -81 103 -155 99
-37 -2 -92 -60 -132 -140 -56 -111 -68 -152 -48 -162 63 -35 24 -200 -53 -225
-46 -15 -57 -42 -37 -93 33 -82 -38 -202 -112 -188 -24 5 -30 2 -44 -28 -13
-27 -14 -41 -6 -61 14 -39 -5 -86 -53 -130 -37 -33 -44 -36 -83 -30 -54 7
-100 -23 -91 -59 8 -30 -27 -73 -78 -96 -51 -23 -80 -24 -101 -3 -22 22 -78
11 -108 -22 -41 -43 -145 -54 -187 -19 -8 7 -46 15 -83 18 -82 8 -158 40 -217
93 -131 117 -195 284 -170 437 19 119 103 247 160 247 32 0 60 -23 60 -48 0
-9 -7 -35 -15 -57 -17 -49 -19 -160 -3 -206 18 -55 70 -119 118 -147 39 -23
56 -27 125 -27 96 0 139 20 223 99 151 142 238 357 278 685 17 139 17 142 -2
168 -44 58 -106 50 -278 -36 -81 -41 -91 -49 -94 -76 -4 -37 -25 -61 -74 -86
-52 -27 -111 -25 -130 3 -13 20 -19 21 -54 13 -28 -7 -40 -16 -42 -31 -5 -36
-38 -57 -97 -62 -73 -6 -97 2 -117 38 -14 25 -23 30 -53 30 -19 0 -35 -4 -35
-9 0 -21 -33 -41 -66 -41 -74 0 -150 58 -138 105 7 27 -31 55 -77 55 -40 0
-82 30 -103 74 -18 38 -21 92 -6 101 19 12 10 36 -27 70 -36 33 -38 38 -41
109 -4 67 -2 76 17 88 26 16 30 82 6 96 -24 13 -33 143 -11 161 25 21 19 49
-20 87 -19 20 -39 46 -44 59 -18 47 -116 52 -187 10 -52 -31 -73 -73 -84 -176
-11 -101 -19 -119 -53 -119 -32 0 -63 26 -88 73 -31 58 -30 169 2 251 42 108
169 209 301 237 164 35 345 -55 425 -213 36 -71 52 -156 62 -329 10 -183 27
-232 95 -277 36 -24 50 -27 122 -27 74 1 89 4 166 41 94 45 203 138 226 191
37 89 -2 175 -114 252 -30 21 -35 21 -55 7 -25 -18 -65 -20 -101 -7 -42 16
-97 71 -97 97 0 35 -42 60 -83 47 -44 -13 -89 1 -127 39 -38 38 -52 71 -44
104 10 39 -19 74 -61 72 -85 -3 -163 159 -99 206 19 15 1 82 -26 96 -67 36
-64 199 4 216 33 8 53 60 31 84 -44 49 23 197 86 188 31 -4 50 34 42 84 -3 20
-3 48 1 62 9 35 64 96 81 90 21 -9 33 26 32 91 -1 43 3 67 16 85 25 36 21 67
-12 98 -17 15 -36 45 -43 66 -28 87 -148 106 -292 47 -88 -36 -122 -35 -132 3
-9 37 3 61 62 125 78 85 130 106 264 105 97 0 110 -2 172 -31 177 -83 268
-246 255 -458 -7 -107 -30 -191 -96 -358 -68 -169 -84 -236 -79 -327 4 -93 32
-152 103 -220 156 -147 440 -197 580 -101 63 43 88 86 83 146 -4 42 -14 62
-61 125 -32 41 -84 129 -116 195 -98 198 -131 334 -131 538 0 172 24 300 85
450 6 15 -1 17 -84 17 -67 0 -93 4 -97 13 -3 8 9 94 27 193 17 98 34 191 36
206 3 15 -2 36 -11 50 -20 28 -21 72 -1 88 11 9 15 35 15 107 0 82 -2 96 -17
100 -10 2 -83 28 -163 56 -132 47 -145 54 -145 76 0 27 10 31 785 281 190 61
413 133 495 160 83 27 166 49 186 49 20 1 121 -26 225 -60z m6393 -6045 c27
-63 90 -123 156 -151 25 -10 45 -20 45 -23 0 -3 -25 -16 -56 -29 -63 -27 -123
-90 -151 -156 -10 -25 -20 -45 -23 -45 -3 0 -16 25 -29 56 -27 63 -90 123
-156 151 -25 10 -45 20 -45 23 0 3 25 16 56 29 63 27 123 90 151 156 10 25 20
45 23 45 3 0 16 -25 29 -56z"/>
<path d="M6120 6760 c-80 -26 -210 -68 -290 -93 -306 -96 -955 -309 -962 -316
-4 -3 133 -54 305 -113 l313 -106 30 91 29 92 75 37 c128 64 300 104 550 129
256 25 619 -35 820 -135 l65 -32 29 -90 c16 -49 29 -90 30 -91 1 -1 91 31 201
71 110 40 246 88 302 107 57 18 99 36 95 40 -7 7 -700 235 -1179 388 -121 39
-232 71 -245 70 -12 0 -88 -22 -168 -49z"/>
<path d="M6130 6449 c-104 -11 -292 -46 -322 -60 -22 -9 -22 -9 2 -4 240 52
502 67 724 41 77 -9 141 -14 143 -12 2 2 -43 11 -99 19 -133 21 -340 28 -448
16z"/>
<path d="M6125 6404 c-194 -22 -290 -42 -409 -85 -92 -33 -105 -44 -130 -107
-24 -62 -106 -350 -106 -371 0 -17 4 -18 43 -9 23 5 110 8 192 5 129 -4 170
-10 291 -40 77 -20 175 -49 216 -66 l75 -30 59 24 c94 38 230 74 359 97 95 16
150 19 263 16 158 -5 151 -8 131 67 -29 109 -112 352 -125 367 -37 40 -246 98
-446 123 -108 13 -329 18 -413 9z"/>
<path d="M6698 6403 c6 -2 18 -2 25 0 6 3 1 5 -13 5 -14 0 -19 -2 -12 -5z"/>
<path d="M6748 6393 c7 -3 16 -2 19 1 4 3 -2 6 -13 5 -11 0 -14 -3 -6 -6z"/>
<path d="M6810 6375 c19 -7 42 -13 50 -13 8 0 -1 6 -20 13 -19 7 -42 13 -50
13 -8 0 1 -6 20 -13z"/>
<path d="M5702 6359 c-29 -12 -52 -23 -50 -24 2 -2 33 7 68 20 36 13 58 24 50
24 -8 0 -39 -9 -68 -20z"/>
<path d="M6930 6335 c14 -8 30 -14 35 -14 6 0 -1 6 -15 14 -14 8 -29 14 -35
14 -5 0 1 -6 15 -14z"/>
<path d="M5581 6297 c-14 -18 -41 -83 -41 -99 1 -7 9 9 20 35 10 27 24 55 30
63 7 8 10 14 7 14 -2 0 -10 -6 -16 -13z"/>
<path d="M5230 6113 c0 -47 6 -79 21 -110 19 -39 19 -45 6 -72 -11 -22 -13
-40 -6 -68 5 -21 18 -90 29 -153 32 -181 26 -171 65 -106 19 32 49 76 67 99
29 37 33 48 34 107 1 43 13 104 36 181 28 95 32 115 19 112 -9 -2 -69 14 -133
37 -65 22 -122 40 -128 40 -6 0 -10 -28 -10 -67z"/>
<path d="M5531 6173 c-1 -6 -4 -20 -7 -30 -5 -17 -5 -17 6 0 6 10 9 23 6 30
-3 9 -5 9 -5 0z"/>
<path d="M5158 5985 c-10 -22 -9 -29 10 -48 18 -17 26 -19 40 -11 21 14 28 50
12 70 -19 22 -49 17 -62 -11z"/>
<path d="M5180 5883 c0 -4 -14 -84 -30 -178 -42 -235 -46 -215 50 -215 l80 0
0 33 c-1 17 -15 106 -33 197 -26 133 -36 165 -50 168 -9 2 -17 0 -17 -5z"/>
<path d="M10460 5786 c-52 -51 -293 -279 -535 -506 -770 -723 -1289 -1225
-1456 -1407 -52 -57 -55 -82 -12 -110 23 -16 26 -15 68 27 33 32 47 56 56 94
23 100 64 146 128 146 35 0 54 17 376 343 187 188 452 457 590 597 137 140
393 400 569 578 176 177 317 324 315 326 -3 3 -47 -37 -99 -88z"/>
<path d="M5520 5803 c-14 -2 -29 -9 -35 -15 -7 -8 -4 -9 10 -4 10 4 69 9 130
12 147 7 359 -28 525 -88 63 -23 131 -41 150 -41 19 0 80 17 135 37 172 65
313 90 508 90 93 1 158 4 145 7 -45 13 -276 9 -364 -6 -112 -20 -257 -59 -352
-95 l-72 -28 -83 30 c-45 16 -140 46 -212 65 -120 32 -143 35 -295 38 -91 2
-176 1 -190 -2z"/>
<path d="M5580 5765 c-8 -2 -32 -6 -52 -10 -31 -5 -45 -16 -81 -63 -65 -85
-133 -206 -167 -301 -17 -46 -29 -85 -27 -87 1 -2 21 3 43 11 69 24 204 37
374 38 187 0 262 -12 430 -71 91 -32 117 -36 195 -36 78 0 104 4 195 36 128
45 224 65 355 73 108 7 304 -7 400 -30 33 -7 61 -12 63 -11 1 2 -9 36 -24 76
-32 90 -100 215 -163 301 -55 74 -66 79 -197 79 -132 0 -387 -54 -537 -115
l-87 -35 -58 24 c-162 68 -373 115 -537 121 -60 2 -117 2 -125 0z"/>
<path d="M4373 5445 c-68 -21 -130 -62 -168 -112 -62 -81 -45 -96 57 -52 84
36 164 46 226 30 50 -14 112 -65 112 -93 0 -10 14 -32 31 -48 38 -34 52 -109
27 -138 -22 -25 -28 -58 -16 -90 9 -22 7 -37 -10 -75 -19 -42 -24 -47 -45 -42
-18 5 -28 0 -41 -19 -23 -35 -31 -83 -17 -100 19 -22 -42 -140 -62 -120 -17
17 -56 -8 -71 -46 -20 -51 -20 -70 1 -85 15 -11 15 -18 4 -69 -11 -50 -15 -56
-37 -56 -58 0 -69 -129 -14 -157 18 -9 28 -28 41 -75 18 -66 17 -78 -7 -78
-19 0 -19 -62 1 -100 19 -37 46 -51 83 -44 25 5 33 0 62 -36 30 -37 32 -46 23
-70 -13 -34 8 -75 50 -103 29 -19 77 -23 77 -7 0 17 31 11 81 -17 40 -23 49
-33 47 -53 -3 -35 7 -47 52 -70 51 -26 75 -25 94 2 15 22 16 22 53 4 95 -45
183 -156 183 -230 0 -112 -158 -263 -329 -316 -147 -46 -266 -14 -323 87 -27
47 -30 66 -39 190 -20 291 -45 371 -146 463 -172 157 -454 107 -567 -101 -38
-69 -47 -177 -21 -244 16 -43 46 -72 64 -61 4 3 11 38 14 78 7 94 30 150 78
192 90 77 212 73 261 -9 11 -20 31 -40 43 -45 32 -12 56 -108 31 -122 -21 -12
-23 -115 -2 -132 8 -6 17 -36 20 -67 7 -52 6 -56 -19 -67 -22 -10 -25 -17 -25
-66 0 -54 16 -86 43 -86 7 0 20 -21 29 -47 16 -43 16 -49 1 -65 -33 -37 30
-135 80 -123 18 5 37 -2 70 -26 39 -27 45 -36 41 -58 -7 -35 31 -71 85 -78 37
-5 41 -3 51 21 9 24 14 26 62 26 62 0 73 -6 87 -43 9 -24 16 -27 55 -27 69 0
98 14 94 48 -3 24 2 29 47 44 68 23 92 22 98 -2 7 -28 32 -35 78 -21 57 17 82
45 74 81 -6 29 -4 30 102 83 188 94 258 106 320 52 27 -23 28 -26 26 -117 -2
-118 -36 -328 -69 -427 -95 -285 -264 -466 -446 -479 -92 -6 -148 11 -208 65
-90 81 -126 199 -95 315 23 84 24 102 2 106 -24 5 -70 -46 -104 -116 -25 -52
-28 -67 -28 -167 0 -103 2 -114 32 -178 40 -85 136 -187 209 -223 36 -17 76
-27 128 -31 45 -4 80 -11 87 -19 7 -9 32 -14 65 -14 45 0 56 4 69 23 10 15 37
30 75 42 l59 18 19 -24 20 -23 40 18 c56 25 76 49 68 80 -5 21 2 31 46 65 48
39 52 40 74 26 19 -12 28 -13 49 -3 47 21 81 98 54 125 -7 7 -3 26 17 64 32
64 40 70 71 56 18 -8 27 -6 44 9 44 39 62 117 33 139 -15 11 -15 16 2 71 17
54 21 59 48 59 39 0 67 40 73 102 5 44 3 51 -20 66 -26 17 -26 17 -11 69 27
94 91 214 136 252 105 90 215 42 294 -130 40 -85 40 -90 14 -104 -24 -13 -27
-64 -6 -115 12 -29 20 -35 45 -35 35 0 47 -17 57 -79 5 -34 3 -44 -11 -55 -14
-10 -17 -22 -13 -59 8 -66 30 -97 72 -97 31 0 35 -4 55 -49 24 -57 25 -65 10
-90 -17 -27 -3 -69 37 -109 30 -30 38 -33 71 -27 33 6 39 3 84 -41 40 -39 46
-51 38 -66 -22 -41 110 -115 133 -74 11 19 29 20 97 5 39 -8 54 -17 63 -37 12
-24 19 -27 75 -30 52 -2 62 0 67 15 5 14 23 21 76 30 97 15 173 55 246 129
109 109 159 252 136 384 -12 68 -34 110 -57 110 -20 0 -31 -27 -38 -90 -13
-133 -76 -228 -185 -282 -61 -30 -74 -33 -162 -33 -82 1 -102 4 -150 28 -174
84 -248 235 -294 603 -14 116 -21 210 -18 267 1 17 14 41 32 59 29 28 34 30
93 26 38 -2 84 -14 119 -30 50 -23 57 -30 60 -59 6 -59 111 -106 137 -61 9 16
13 15 58 -8 41 -21 48 -29 49 -56 1 -42 10 -53 58 -75 55 -25 75 -24 86 6 11
30 35 31 100 7 37 -14 45 -22 46 -43 1 -38 9 -45 60 -58 55 -14 82 -7 86 22 3
19 10 22 56 25 57 3 82 -8 82 -38 0 -22 20 -30 73 -30 51 0 64 8 68 40 3 21
13 27 58 39 49 13 55 13 66 -2 16 -23 53 -21 93 3 27 17 33 26 28 44 -8 32 71
88 112 80 38 -8 86 38 77 73 -4 18 3 34 30 66 20 23 38 51 40 62 40 202 42
264 10 372 -17 57 -78 133 -106 133 -18 0 -19 -7 -18 -132 3 -200 -29 -281
-144 -369 -116 -87 -298 -108 -482 -55 -219 64 -452 224 -407 279 7 8 57 22
112 32 l101 17 23 -25 c20 -22 29 -24 58 -18 69 16 92 33 93 69 0 30 5 35 48
54 41 18 51 19 72 8 62 -33 159 52 113 98 -9 9 -3 21 27 52 32 33 45 39 66 35
21 -5 32 1 58 30 30 35 41 78 21 90 -5 3 -10 10 -10 16 0 15 69 87 121 125 27
20 54 44 59 55 10 17 9 18 -18 2 -38 -22 -76 -11 -101 31 -36 58 -30 70 94
196 64 64 112 119 108 123 -13 14 -99 6 -139 -12 -58 -26 -105 -70 -213 -201
-161 -194 -240 -264 -364 -320 -76 -34 -149 -50 -227 -50 -75 0 -76 10 -11 74
47 46 50 48 72 33 19 -14 25 -14 49 -2 56 29 99 102 70 120 -16 10 -12 19 26
64 32 37 40 41 66 36 21 -5 35 -2 50 12 45 41 63 114 31 131 -15 9 -15 14 3
75 16 57 22 67 44 69 32 4 50 40 50 105 0 47 -3 53 -27 65 -26 12 -28 19 -31
77 -3 54 0 67 17 83 40 36 14 131 -38 141 -23 5 -29 13 -39 57 -16 69 -15 77
8 83 37 10 17 113 -23 119 -18 2 -23 11 -25 42 -4 51 5 86 23 86 22 0 45 41
45 81 0 44 26 80 84 114 67 39 140 49 228 30 91 -19 88 -19 88 5 0 48 -96 107
-196 121 -77 11 -148 -1 -229 -40 -123 -58 -199 -155 -236 -301 -20 -79 -21
-97 -13 -245 5 -88 9 -230 9 -315 -1 -177 -18 -248 -80 -336 -143 -201 -444
-245 -589 -84 -76 85 -70 174 20 281 93 110 157 238 194 382 26 102 45 323 36
409 l-8 67 -23 -15 c-29 -19 -30 -19 -60 -171 -29 -141 -58 -205 -116 -258
-118 -106 -332 -136 -494 -68 -115 48 -190 137 -261 308 -34 82 -46 102 -68
110 -48 17 -75 -9 -116 -111 -48 -121 -79 -171 -139 -228 -99 -91 -234 -130
-382 -108 -220 32 -321 148 -364 417 -12 71 -25 102 -50 115 -14 8 -29 27 -34
44 -13 50 -25 -106 -18 -249 10 -222 108 -480 254 -666 50 -64 66 -109 57
-159 -21 -117 -144 -194 -308 -192 -217 2 -421 112 -498 269 -28 58 -32 75
-31 147 0 96 13 146 81 323 80 204 96 272 96 388 -1 113 -20 178 -78 262 -84
123 -275 192 -413 148z"/>
<path d="M5440 5310 c-121 -17 -161 -30 -171 -57 -16 -44 -10 -71 25 -105 31
-30 36 -44 54 -138 34 -176 76 -262 158 -317 79 -54 211 -80 319 -63 175 29
259 105 342 309 24 58 43 107 43 108 0 1 13 9 30 18 71 37 136 2 166 -88 47
-143 132 -260 224 -307 64 -32 174 -53 245 -44 118 13 183 40 245 102 61 62
85 119 110 267 17 97 36 138 70 158 28 17 29 21 23 65 -3 26 -8 50 -12 53 -21
22 -170 43 -336 47 -214 5 -308 -8 -486 -68 -153 -52 -230 -54 -358 -11 -203
70 -222 73 -431 77 -107 1 -224 -1 -260 -6z m1593 -46 c109 -31 148 -80 155
-194 8 -138 -43 -283 -121 -340 -91 -67 -264 -85 -380 -41 -109 42 -194 154
-223 293 -31 149 10 217 165 268 119 40 295 46 404 14z m-1082 -13 c121 -38
170 -87 177 -175 12 -145 -79 -316 -199 -374 -96 -47 -227 -52 -330 -12 -103
38 -164 115 -194 241 -39 169 2 287 113 323 78 25 82 25 227 22 109 -3 155 -8
206 -25z"/>
<path d="M6735 5244 c-114 -24 -192 -59 -225 -101 -20 -25 -22 -37 -18 -108 5
-103 38 -176 110 -248 66 -67 121 -87 234 -87 137 0 230 44 274 131 44 85 64
246 38 306 -34 80 -119 114 -287 112 -58 -1 -115 -3 -126 -5z"/>
<path d="M5583 5240 c-67 -14 -123 -47 -138 -83 -22 -54 -27 -110 -15 -182 30
-188 131 -276 315 -278 153 -1 245 54 311 189 33 65 37 84 38 152 1 59 -3 83
-17 104 -25 36 -104 74 -192 93 -75 16 -233 18 -302 5z"/>
<path d="M8661 3983 c-14 -12 -32 -54 -52 -122 -16 -56 -48 -138 -70 -181 -44
-83 -45 -113 -7 -123 55 -15 159 63 208 155 29 54 35 75 38 148 4 76 2 88 -18
113 -25 32 -67 36 -99 10z"/>
</g>
</svg>
